<?xml version="1.0" encoding="UTF-8"?>
<!DOCTYPE svg PUBLIC "-//W3C//DTD SVG 1.1//EN" "http://www.w3.org/Graphics/SVG/1.1/DTD/svg11.dtd">
<svg version="1.1" xmlns="http://www.w3.org/2000/svg" xmlns:xlink="http://www.w3.org/1999/xlink" x="0" y="0" width="100%" height="100%" viewBox="0, 0, 85.039, 85.039">
 
  <g id="Layer_2">
    <path d="M43.02,82.988 C20.946,82.988 3.051,65.094 3.051,43.02 C3.051,20.946 20.946,3.051 43.02,3.051 C65.094,3.051 82.988,20.946 82.988,43.02 C82.988,65.094 65.094,82.988 43.02,82.988 z" fill-opacity="0" stroke="white" stroke-width="5"/>
    <path d="M43.02,57.193 C35.192,57.193 28.846,50.847 28.846,43.02 C28.846,35.192 35.192,28.846 43.02,28.846 C50.847,28.846 57.193,35.192 57.193,43.02 C57.193,50.847 50.847,57.193 43.02,57.193 z" fill-opacity="0" stroke="white" stroke-width="5"/>
    <path d="M57.193,43.02 L82.988,43.02" fill-opacity="0" stroke="white" stroke-width="5"/>
    <path d="M3.051,43.02 L28.846,43.02" fill-opacity="0" stroke="white" stroke-width="5"/>
  </g>
</svg>
